<svg width="22" height="22" viewBox="0 0 22 22" fill="none" xmlns="http://www.w3.org/2000/svg">
<path d="M16.5001 6.32623H17.5001M5.00006 1.32623H17.0001C19.2092 1.32623 21.0001 3.11709 21.0001 5.32623V17.3262C21.0001 19.5354 19.2092 21.3262 17.0001 21.3262H5.00006C2.79092 21.3262 1.00006 19.5354 1.00006 17.3262V5.32623C1.00006 3.11709 2.79092 1.32623 5.00006 1.32623ZM11.0001 15.3262C8.79092 15.3262 7.00006 13.5354 7.00006 11.3262C7.00006 9.11709 8.79092 7.32623 11.0001 7.32623C13.2092 7.32623 15.0001 9.11709 15.0001 11.3262C15.0001 13.5354 13.2092 15.3262 11.0001 15.3262Z" stroke="#E5E5E5"/>
</svg>
