<svg width="25" height="25" viewBox="0 0 25 25" fill="none" xmlns="http://www.w3.org/2000/svg">
<path d="M7.04 5.82623C7.1 6.71623 7.25 7.58623 7.49 8.41623L6.29 9.61623C5.88 8.41623 5.62 7.14623 5.53 5.82623H7.04ZM16.9 17.8462C17.75 18.0862 18.62 18.2362 19.5 18.2962V19.7862C18.18 19.6962 16.91 19.4362 15.7 19.0362L16.9 17.8462ZM8 3.82623H4.5C3.95 3.82623 3.5 4.27623 3.5 4.82623C3.5 14.2162 11.11 21.8262 20.5 21.8262C21.05 21.8262 21.5 21.3762 21.5 20.8262V17.3362C21.5 16.7862 21.05 16.3362 20.5 16.3362C19.26 16.3362 18.05 16.1362 16.93 15.7662C16.83 15.7262 16.72 15.7162 16.62 15.7162C16.36 15.7162 16.11 15.8162 15.91 16.0062L13.71 18.2062C10.88 16.7562 8.56 14.4462 7.12 11.6162L9.32 9.41623C9.6 9.13623 9.68 8.74623 9.57 8.39623C9.2 7.27623 9 6.07623 9 4.82623C9 4.27623 8.55 3.82623 8 3.82623Z" fill="#E5E5E5"/>
</svg>
