<svg width="25" height="25" viewBox="0 0 25 25" fill="none" xmlns="http://www.w3.org/2000/svg">
<path d="M12.5 4.82623C14.43 4.82623 17.5 6.22623 17.5 9.97623C17.5 12.1362 15.78 14.6462 12.5 17.2962C9.22 14.6462 7.5 12.1262 7.5 9.97623C7.5 6.22623 10.57 4.82623 12.5 4.82623ZM12.5 2.82623C9.23 2.82623 5.5 5.28623 5.5 9.97623C5.5 13.0962 7.83 16.3862 12.5 19.8262C17.17 16.3862 19.5 13.0962 19.5 9.97623C19.5 5.28623 15.77 2.82623 12.5 2.82623Z" fill="#E5E5E5"/>
<path d="M12.5 7.82623C11.4 7.82623 10.5 8.72623 10.5 9.82623C10.5 10.9262 11.4 11.8262 12.5 11.8262C13.0304 11.8262 13.5391 11.6155 13.9142 11.2404C14.2893 10.8654 14.5 10.3567 14.5 9.82623C14.5 9.2958 14.2893 8.78709 13.9142 8.41202C13.5391 8.03695 13.0304 7.82623 12.5 7.82623ZM5.5 20.8262H19.5V22.8262H5.5V20.8262Z" fill="#E5E5E5"/>
</svg>
