<svg width="22" height="22" viewBox="0 0 22 22" fill="none" xmlns="http://www.w3.org/2000/svg">
<path d="M2.99977 17.3268L3.44699 17.5504L3.58531 17.2738L3.39954 17.0265L2.99977 17.3268ZM4.99949 19.3265L5.2998 18.9268L5.05252 18.741L4.77588 18.8793L4.99949 19.3265ZM1.00006 21.3262L0.552847 21.1026C0.4566 21.2951 0.494328 21.5276 0.646508 21.6798C0.798688 21.832 1.03117 21.8697 1.22367 21.7735L1.00006 21.3262ZM7.00006 7.32624L6.70006 6.92624C6.57416 7.02067 6.50006 7.16887 6.50006 7.32624H7.00006ZM15.0001 15.3262V15.8262C15.1475 15.8262 15.2875 15.7611 15.3825 15.6483L15.0001 15.3262ZM7.62152 6.86015L7.32152 6.46015L7.62152 6.86015ZM9.21379 7.53612L8.71766 7.59813L9.21379 7.53612ZM9.4394 9.34094L9.93554 9.27892L9.4394 9.34094ZM9.15423 10.1721L8.80067 9.81852L8.80067 9.81853L9.15423 10.1721ZM15.4434 14.7998L15.0609 14.4778L15.4434 14.7998ZM14.8233 13.1662L14.8957 12.6715L14.8233 13.1662ZM12.9969 12.899L13.0693 12.4042L12.9969 12.899ZM12.145 13.1813L12.4986 13.5349L12.145 13.1813ZM0.500073 11.3262C0.500073 13.6897 1.28156 15.8721 2.60001 17.6271L3.39954 17.0265C2.20671 15.4387 1.50007 13.4657 1.50007 11.3262H0.500073ZM11.0001 0.826233C5.20108 0.826233 0.500073 5.52724 0.500073 11.3262H1.50007C1.50007 6.07953 5.75337 1.82623 11.0001 1.82623V0.826233ZM21.5001 11.3262C21.5001 5.52724 16.7991 0.826233 11.0001 0.826233V1.82623C16.2468 1.82623 20.5001 6.07953 20.5001 11.3262H21.5001ZM11.0001 21.8262C16.7991 21.8262 21.5001 17.1252 21.5001 11.3262H20.5001C20.5001 16.5729 16.2468 20.8262 11.0001 20.8262V21.8262ZM4.69917 19.7263C6.45421 21.0447 8.6366 21.8262 11.0001 21.8262V20.8262C8.8606 20.8262 6.88761 20.1196 5.2998 18.9268L4.69917 19.7263ZM1.22367 21.7735L5.22309 19.7737L4.77588 18.8793L0.776454 20.879L1.22367 21.7735ZM2.55256 17.1032L0.552847 21.1026L1.44727 21.5498L3.44699 17.5504L2.55256 17.1032ZM6.50006 7.32624V8.32624H7.50006V7.32624H6.50006ZM14.0001 15.8262H15.0001V14.8262H14.0001V15.8262ZM6.50006 8.32624C6.50006 12.4684 9.85793 15.8262 14.0001 15.8262V14.8262C10.4102 14.8262 7.50006 11.9161 7.50006 8.32624H6.50006ZM7.30006 7.72624L7.92152 7.26015L7.32152 6.46015L6.70006 6.92624L7.30006 7.72624ZM8.71766 7.59813L8.94326 9.40295L9.93554 9.27892L9.70993 7.4741L8.71766 7.59813ZM8.80067 9.81853L7.64651 10.9727L8.35361 11.6798L9.50778 10.5256L8.80067 9.81853ZM8.94326 9.40295C8.9624 9.55606 8.90978 9.70942 8.80067 9.81852L9.50778 10.5256C9.83509 10.1983 9.99295 9.73823 9.93554 9.27892L8.94326 9.40295ZM7.92152 7.26015C8.22865 7.02981 8.67004 7.21719 8.71766 7.59813L9.70993 7.4741C9.56708 6.33126 8.24291 5.76911 7.32152 6.46015L7.92152 7.26015ZM15.3825 15.6483L15.8258 15.1219L15.0609 14.4778L14.6176 15.0042L15.3825 15.6483ZM14.8957 12.6715L13.0693 12.4042L12.9245 13.3937L14.7509 13.661L14.8957 12.6715ZM11.7914 12.8278L10.6465 13.9727L11.3536 14.6798L12.4986 13.5349L11.7914 12.8278ZM13.0693 12.4042C12.6004 12.3356 12.1266 12.4926 11.7914 12.8278L12.4986 13.5349C12.6103 13.4232 12.7682 13.3708 12.9245 13.3937L13.0693 12.4042ZM15.8258 15.1219C16.583 14.2228 16.0587 12.8417 14.8957 12.6715L14.7509 13.661C15.1385 13.7177 15.3133 14.178 15.0609 14.4778L15.8258 15.1219Z" fill="#E5E5E5"/>
</svg>
